<svg xmlns="http://www.w3.org/2000/svg" width="180" height="260" viewBox="0 0 180 260" fill="none">
  <path d="M88 252C62 206 48 165 52 128C55 89 75 51 112 14" stroke="#D8A0A1" stroke-width="1.4" stroke-linecap="round"/>
  <path d="M57 133C37 128 20 118 6 103" stroke="#D8A0A1" stroke-width="1.2" stroke-linecap="round"/>
  <path d="M64 96C43 86 31 72 27 53" stroke="#D8A0A1" stroke-width="1.2" stroke-linecap="round"/>
  <path d="M72 184C45 182 26 191 15 211" stroke="#D8A0A1" stroke-width="1.2" stroke-linecap="round"/>
  <path d="M68 206C50 216 38 230 31 248" stroke="#D8A0A1" stroke-width="1.2" stroke-linecap="round"/>
  <path d="M70 104C86 103 99 109 109 121" stroke="#D8A0A1" stroke-width="1.2" stroke-linecap="round"/>
  <path d="M75 70C91 65 106 67 119 76" stroke="#D8A0A1" stroke-width="1.2" stroke-linecap="round"/>
  <path d="M86 41C101 37 113 39 124 47" stroke="#D8A0A1" stroke-width="1.2" stroke-linecap="round"/>
  <path d="M33 101C27 96 26 88 31 82C38 88 39 96 33 101Z" stroke="#D8A0A1" stroke-width="1.1"/>
  <path d="M25 60C18 55 18 47 23 41C30 47 31 55 25 60Z" stroke="#D8A0A1" stroke-width="1.1"/>
  <path d="M102 119C107 110 116 108 123 114C119 123 110 126 102 119Z" stroke="#D8A0A1" stroke-width="1.1"/>
  <path d="M114 75C119 66 128 64 135 70C131 79 122 82 114 75Z" stroke="#D8A0A1" stroke-width="1.1"/>
  <path d="M25 211C19 206 18 198 23 192C30 198 31 206 25 211Z" stroke="#D8A0A1" stroke-width="1.1"/>
  <path d="M41 236C35 232 34 224 39 218C46 223 47 231 41 236Z" stroke="#D8A0A1" stroke-width="1.1"/>
  <path d="M121 47C127 39 136 39 142 45C137 53 128 55 121 47Z" stroke="#D8A0A1" stroke-width="1.1"/>
  <circle cx="47" cy="124" r="2" fill="#D8A0A1"/>
  <circle cx="63" cy="166" r="2" fill="#D8A0A1"/>
  <circle cx="72" cy="89" r="2" fill="#D8A0A1"/>
</svg>
